<?xml version="1.0" encoding="utf-8"?>
<!-- Generator: Adobe Illustrator 26.0.2, SVG Export Plug-In . SVG Version: 6.00 Build 0)  -->
<svg version="1.1" id="Layer_1" xmlns="http://www.w3.org/2000/svg" xmlns:xlink="http://www.w3.org/1999/xlink" x="0px" y="0px"
	 viewBox="0 0 22 21" style="enable-background:new 0 0 22 21;" xml:space="preserve">
<style type="text/css">
	.st0{fill:#FAAE32;}
</style>
<path class="st0" d="M20.3,14.1c-0.6-0.6-1.2-1.1-1.9-1.7c-0.6-0.5-1.2-0.8-1.9-0.7c-0.5,0.1-0.9,0.3-1.4,0.8
	c-0.4,0.5-0.9,1-1.3,1.4c-0.1,0.1-0.2,0.2-0.3,0.1c-0.1,0-0.2-0.1-0.3-0.1c-0.1,0-0.2-0.1-0.3-0.1c-1.2-0.6-2.3-1.5-3.4-2.6
	c-0.8-0.8-1.7-1.8-2.3-2.9C7.1,8.1,7.1,8,7.2,7.9c0.5-0.5,1-1.1,1.5-1.6C9,5.9,9.2,5.4,9.2,4.9c0-0.7-0.2-1.2-0.8-1.8
	C8.1,2.9,7.8,2.6,7.5,2.4C7,1.9,6.5,1.4,6,1C5.5,0.5,5,0.1,4.3,0L3.8,0C3.3,0.2,2.8,0.4,2.5,0.8C1.9,1.4,1.4,2,0.9,2.5
	C0.3,3.1,0,3.9,0,4.9c0,1,0.3,2.1,0.8,3.4c1,2.5,2.6,4.7,4.8,6.9c1.9,1.9,4.2,3.5,6.7,4.6c1.6,0.7,3.1,1.1,4.4,1.2
	c0.1,0,0.3,0,0.4,0c1.1,0,1.9-0.4,2.6-1.2c0.1-0.1,0.2-0.2,0.3-0.3c0.3-0.3,0.6-0.6,0.9-1c0.6-0.6,1-1.1,1.1-1.8l0-0.5
	c-0.1-0.5-0.4-1-0.8-1.3L20.3,14.1z M20.6,17.3c-0.1,0.1-0.2,0.2-0.2,0.3c-0.1,0.2-0.3,0.3-0.4,0.5c-0.3,0.3-0.6,0.7-0.9,1
	c-0.5,0.6-1.1,0.9-1.9,0.9c0,0-0.1,0-0.1,0c-1,0-2-0.2-3.1-0.6c-3-1.1-5.6-2.9-7.9-5.2c-1.5-1.5-2.6-3-3.5-4.7
	C1.8,8.2,1.4,7.1,1.2,6.1c0-0.2-0.1-0.4-0.1-0.6c0-0.1,0-0.2,0-0.3l0,0C1,4.4,1.3,3.7,1.8,3.1c0.3-0.3,0.6-0.7,0.9-1
	c0.1-0.2,0.3-0.3,0.4-0.5c0.1-0.1,0.1-0.1,0.2-0.2C3.9,1,4.4,1,4.9,1.4C4.9,1.4,5,1.5,5,1.5l0.7,0.7C6.4,2.8,7,3.3,7.6,3.9
	c0.7,0.6,0.7,1.1,0.1,1.8C7.4,6.1,7.1,6.4,6.8,6.7C6.7,6.9,6.5,7.1,6.3,7.3C5.9,7.7,5.8,8,6.1,8.6c0.6,1.3,1.6,2.4,2.4,3.2
	c1.3,1.3,2.5,2.3,3.9,3c0.2,0.1,0.4,0.2,0.7,0.3l0.1,0.1c0.5,0.2,0.8,0.2,1.2-0.2c0.3-0.3,0.6-0.7,0.9-1c0.2-0.2,0.3-0.4,0.5-0.5
	c0.1-0.1,0.1-0.1,0.2-0.2c0.5-0.4,1-0.4,1.5,0c0.1,0.1,0.2,0.2,0.3,0.3l0.7,0.6c0.6,0.5,1.1,1.1,1.7,1.6c0.1,0.1,0.2,0.2,0.2,0.2
	C20.9,16.3,20.9,16.8,20.6,17.3z"/>
</svg>
