<?xml version="1.0" encoding="utf-8"?>
<!-- Generator: Adobe Illustrator 26.0.2, SVG Export Plug-In . SVG Version: 6.00 Build 0)  -->
<svg version="1.1" id="Layer_1" xmlns="http://www.w3.org/2000/svg" xmlns:xlink="http://www.w3.org/1999/xlink" x="0px" y="0px"
	 viewBox="0 0 13 17" style="enable-background:new 0 0 13 17;" xml:space="preserve">
<style type="text/css">
	.st0{fill:#FBB033;}
</style>
<path class="st0" d="M6.5,1.1c3,0,5.4,2.4,5.4,5.3c0,1.7-0.4,2.3-3.4,6.5c-0.6,0.8-1.3,1.8-2.1,2.9c-0.8-1.1-1.5-2.1-2.1-2.9
	c-3-4.2-3.4-4.8-3.4-6.5C1.1,3.5,3.5,1.1,6.5,1.1 M6.5,10.1c2.1,0,3.8-1.7,3.8-3.7S8.6,2.6,6.5,2.6S2.7,4.3,2.7,6.4
	S4.4,10.1,6.5,10.1 M6.5,0C2.9,0,0,2.9,0,6.4c0,2.6,0.9,3.3,5.8,10.3C6,16.9,6.2,17,6.5,17s0.5-0.1,0.7-0.3c4.9-7,5.8-7.7,5.8-10.3
	C13,2.9,10.1,0,6.5,0L6.5,0z M6.5,9C5,9,3.8,7.8,3.8,6.4S5,3.7,6.5,3.7s2.7,1.2,2.7,2.7S8,9,6.5,9L6.5,9z"/>
</svg>
